<?xml version="1.0" standalone="no"?>
<!DOCTYPE svg PUBLIC "-//W3C//DTD SVG 20010904//EN"
 "http://www.w3.org/TR/2001/REC-SVG-20010904/DTD/svg10.dtd">
<svg version="1.0" xmlns="http://www.w3.org/2000/svg"
 width="370.000000pt" height="337.000000pt" viewBox="0 0 370.000000 337.000000"
 preserveAspectRatio="xMidYMid meet">

<g transform="translate(0.000000,337.000000) scale(0.100000,-0.100000)"
fill="#000000" stroke="none">
<path d="M1705 3132 c-49 -21 -111 -49 -137 -64 l-48 -27 0 30 c0 16 -4 29
-10 29 -5 0 -32 -20 -60 -45 -45 -40 -56 -45 -100 -45 -41 0 -55 -5 -85 -31
-20 -18 -43 -45 -51 -60 -14 -28 -18 -29 -84 -29 l-70 0 -94 -85 c-128 -116
-180 -175 -195 -225 -9 -32 -35 -64 -112 -138 -156 -151 -182 -205 -222 -456
l-23 -144 22 -43 c60 -115 112 -292 92 -316 -5 -7 -14 -10 -19 -7 -5 3 -9 -18
-9 -47 0 -43 14 -84 83 -243 46 -105 94 -219 106 -253 14 -36 33 -68 46 -77
16 -11 27 -33 36 -72 30 -134 107 -204 224 -204 51 0 69 -5 101 -26 54 -37 97
-54 138 -54 24 0 73 -21 155 -65 67 -36 130 -65 141 -65 13 0 20 -7 20 -18 0
-17 5 -18 68 -9 67 9 230 4 392 -11 56 -6 99 -16 125 -30 48 -26 67 -28 63 -5
-2 12 8 21 32 29 80 26 89 26 114 -1 29 -31 32 -31 41 2 8 33 21 43 58 43 21
0 27 5 27 23 0 15 25 49 70 96 l70 74 25 -23 c31 -29 34 -7 5 30 -11 14 -20
28 -20 32 0 10 69 30 85 24 9 -3 15 1 15 9 0 14 19 21 70 27 18 2 28 12 35 33
6 17 38 68 72 113 34 45 80 113 102 151 38 65 111 221 111 237 0 13 -70 -59
-92 -94 -12 -20 -27 -32 -37 -30 -10 3 -20 -7 -28 -27 -10 -26 -12 -27 -12 -8
-1 20 -22 7 -161 -97 -201 -151 -378 -270 -402 -270 -10 0 -21 7 -25 15 -5 14
-8 14 -29 0 -29 -19 -44 -19 -44 0 0 20 -46 20 -54 -1 -3 -8 -10 -13 -15 -9
-6 3 -14 -3 -20 -12 -6 -10 -11 -14 -11 -9 0 5 -7 3 -15 -4 -13 -11 -18 -10
-30 6 -14 18 -14 18 -15 1 0 -10 -4 -15 -10 -12 -5 3 -10 -2 -10 -12 0 -32
-59 -59 -156 -72 -78 -10 -103 -10 -168 3 -42 9 -133 23 -203 31 -147 17 -146
17 -235 57 -69 32 -80 41 -53 52 31 12 14 24 -20 14 l-34 -11 -163 154 c-90
85 -201 195 -248 244 -76 80 -90 101 -127 190 -23 55 -47 99 -54 97 -33 -8
-53 49 -23 66 15 8 15 19 3 114 -12 99 -11 107 9 159 14 37 27 107 38 219 33
338 83 441 331 681 101 98 142 130 259 199 237 142 344 180 514 182 126 2 140
7 140 55 -1 35 -5 41 -54 71 -30 17 -56 32 -58 31 -1 0 -43 -17 -93 -37z
m-1030 -1855 c30 -61 30 -60 5 -47 -10 6 -23 25 -28 43 -6 17 -13 41 -18 51
-17 42 17 3 41 -47z m-54 19 c8 -27 7 -28 -12 -10 -21 19 -26 48 -7 42 7 -3
15 -17 19 -32z"/>
<path d="M2182 3058 c-7 -7 -38 -14 -68 -15 -65 -3 -84 -15 -84 -52 0 -54 73
-103 177 -118 72 -11 140 -51 400 -236 173 -123 173 -123 241 -102 20 7 22 4
22 -36 1 -65 41 -154 89 -195 48 -41 66 -89 53 -137 -8 -30 -6 -42 20 -88 16
-30 47 -72 68 -94 22 -23 40 -49 40 -59 0 -13 5 -17 19 -13 18 4 19 0 16 -72
l-4 -76 9 60 c6 32 17 84 25 113 17 57 14 78 -5 43 -18 -35 -30 -24 -30 27 0
26 -7 112 -17 192 l-16 145 -140 225 c-88 141 -161 247 -196 283 -85 89 -206
158 -351 203 -58 18 -251 19 -268 2z"/>
<path d="M1040 1860 c-41 -10 -60 -33 -60 -75 0 -43 23 -71 75 -91 25 -9 45
-23 45 -30 0 -16 -36 -19 -45 -4 -3 6 -22 10 -41 10 -32 0 -34 -2 -34 -35 0
-39 13 -46 97 -48 70 -2 100 9 118 44 13 25 14 36 4 66 -9 29 -21 39 -65 59
-71 31 -70 46 1 38 l55 -7 0 31 c0 16 -6 32 -14 35 -29 11 -103 15 -136 7z"/>
<path d="M1220 1835 c0 -14 5 -25 10 -25 6 0 10 -35 10 -85 0 -50 -4 -85 -10
-85 -5 0 -10 -11 -10 -25 0 -24 3 -25 55 -25 52 0 55 1 55 25 0 14 -4 25 -10
25 -15 0 -12 53 3 75 26 35 40 8 33 -61 l-7 -64 51 0 51 0 -6 68 c-9 100 -13
112 -41 123 -19 7 -34 5 -57 -6 -16 -8 -32 -15 -34 -15 -1 0 -3 23 -3 50 l0
50 -45 0 c-41 0 -45 -2 -45 -25z"/>
<path d="M1513 1783 c-29 -4 -33 -8 -33 -33 0 -29 1 -30 43 -24 32 5 46 2 56
-10 12 -14 10 -16 -13 -16 -82 0 -127 -85 -59 -111 17 -6 33 -5 54 6 16 9 29
11 29 5 0 -5 20 -10 45 -10 41 0 45 2 45 25 0 14 -4 25 -10 25 -5 0 -10 22
-10 49 0 32 -6 56 -17 70 -19 22 -73 32 -130 24z m77 -122 c0 -13 -26 -32 -33
-24 -14 13 -6 33 13 33 11 0 20 -4 20 -9z"/>
<path d="M1812 1774 c-12 -8 -22 -10 -22 -5 0 6 -22 11 -50 11 -47 0 -50 -2
-50 -25 0 -14 5 -25 10 -25 6 0 10 -20 10 -45 0 -25 -4 -45 -10 -45 -5 0 -10
-11 -10 -25 0 -24 2 -25 65 -25 63 0 65 1 65 25 0 16 -6 25 -15 25 -10 0 -15
11 -15 35 0 29 5 37 26 45 14 6 30 8 35 4 5 -3 9 11 9 30 0 40 -13 45 -48 20z"/>
<path d="M1953 1782 c-61 -18 -89 -87 -60 -148 19 -40 73 -59 133 -46 32 6 40
12 42 34 3 25 2 26 -37 21 -25 -4 -46 -1 -56 7 -24 20 -7 30 52 30 l56 0 -7
32 c-4 18 -14 40 -24 49 -20 20 -68 30 -99 21z m55 -59 c2 -8 -6 -13 -22 -13
-25 0 -33 10 -19 24 10 10 36 3 41 -11z"/>
<path d="M2274 1783 c-39 -8 -69 -50 -69 -98 0 -75 60 -116 139 -94 44 12 66
42 66 92 0 51 -15 76 -55 93 -35 14 -42 15 -81 7z m51 -98 c0 -33 -3 -40 -20
-40 -22 0 -30 24 -21 61 5 17 12 24 24 22 13 -2 17 -13 17 -43z"/>
<path d="M2555 1774 c-19 -10 -31 -11 -33 -5 -2 6 -24 11 -48 11 -40 0 -44 -2
-44 -24 0 -14 5 -28 10 -31 6 -3 10 -21 10 -40 0 -19 -4 -37 -10 -40 -5 -3
-10 -17 -10 -31 0 -23 3 -24 55 -24 52 0 55 1 55 25 0 14 -4 25 -10 25 -16 0
-12 66 5 80 27 23 38 1 31 -66 l-7 -64 52 0 51 0 -6 53 c-15 122 -17 128 -43
138 -30 11 -22 12 -58 -7z"/>
</g>
</svg>
